<?xml version="1.0" standalone="no"?>
<!DOCTYPE svg PUBLIC "-//W3C//DTD SVG 1.1//EN" "http://www.w3.org/Graphics/SVG/1.1/DTD/svg11.dtd">
<svg width="51mm" height="34mm" viewBox="0 -34 51 34" xmlns="http://www.w3.org/2000/svg" version="1.1">
<title>OpenSCAD Model</title>
<g id="board">
<path d="
M 6.71387e-06,-2.54 L 0.0385962,-2.09894 L 0.15319,-1.67127 L 0.340308,-1.27001 L 0.59426,-0.907325 L 0.907325,-0.59426
 L 1.27001,-0.340308 L 1.67127,-0.15319 L 2.09894,-0.0385962 L 2.54,-6.71387e-06 L 48.46,-6.71387e-06 L 48.9011,-0.0385962
 L 49.3287,-0.15319 L 49.73,-0.340308 L 50.0927,-0.59426 L 50.4057,-0.907325 L 50.6597,-1.27001 L 50.8468,-1.67127
 L 50.9614,-2.09894 L 51,-2.54 L 51,-30.96 L 50.9614,-31.4011 L 50.8468,-31.8287 L 50.6597,-32.23
 L 50.4057,-32.5927 L 50.0927,-32.9057 L 49.73,-33.1597 L 49.3287,-33.3468 L 48.9011,-33.4614 L 48.46,-33.5
 L 2.54,-33.5 L 2.09894,-33.4614 L 1.67127,-33.3468 L 1.27001,-33.1597 L 0.907325,-32.9057 L 0.59426,-32.5927
 L 0.340308,-32.23 L 0.15319,-31.8287 L 0.0385962,-31.4011 L 6.71387e-06,-30.96 z
" stroke="none" fill="lightgray" stroke-width="0"/>
</g>
<g id="silkscreen">
<path d="
M 6.71387e-06,-2.54 L 0.0385962,-2.09894 L 0.15319,-1.67127 L 0.340308,-1.27001 L 0.59426,-0.907325 L 0.907325,-0.59426
 L 1.27001,-0.340308 L 1.67127,-0.15319 L 2.09894,-0.0385962 L 2.54,-6.71387e-06 L 48.46,-6.71387e-06 L 48.9011,-0.0385962
 L 49.3287,-0.15319 L 49.73,-0.340308 L 50.0927,-0.59426 L 50.4057,-0.907325 L 50.6597,-1.27001 L 50.8468,-1.67127
 L 50.9614,-2.09894 L 51,-2.54 L 51,-30.96 L 50.9614,-31.4011 L 50.8468,-31.8287 L 50.6597,-32.23
 L 50.4057,-32.5927 L 50.0927,-32.9057 L 49.73,-33.1597 L 49.3287,-33.3468 L 48.9011,-33.4614 L 48.46,-33.5
 L 2.54,-33.5 L 2.09894,-33.4614 L 1.67127,-33.3468 L 1.27001,-33.1597 L 0.907325,-32.9057 L 0.59426,-32.5927
 L 0.340308,-32.23 L 0.15319,-31.8287 L 0.0385962,-31.4011 L 6.71387e-06,-30.96 z
" stroke="black" fill="none" stroke-width="0.203"/>
</g>
</svg>
